<?xml version="1.0" encoding="UTF-8" standalone="no"?>
<!DOCTYPE svg PUBLIC "-//W3C//DTD SVG 1.1//EN" "http://www.w3.org/Graphics/SVG/1.1/DTD/svg11.dtd">
<svg width="419" height="519" viewBox="0 0 419 519" version="1.1" xmlns="http://www.w3.org/2000/svg">
    <g transform="matrix(1,0,0,1,-193,-138)">
        <g id="bot" transform="matrix(1.16541,0,0,1.16541,-77.1479,-66.5765)">
            <g transform="matrix(1,0,0,1,0,-14)">
                <g id="body">
                    <path d="M418.9,364.5L418.9,364.5L418.9,364.5ZM462.1,236.4L462.1,236.4L454.8,236.4C451.2,236.4 448.3,239.3 448.3,242.9L448.3,280.1C422.1,272.2 394.1,268 365,268L332.7,268L332.7,199C341.6,193.6 348,184 348,173C348,157.6 335.4,145 320,145C304.6,145 292,157.6 292,173C292,184 298.4,193.6 307.3,199L307.3,268L275,268C245.9,268 217.9,272.2 191.7,280.1L191.7,242.9C191.7,239.3 188.8,236.4 185.2,236.4L178.1,236.4C174.5,236.4 171.6,239.3 171.6,242.9L171.6,289.3C133.8,305.6 101.4,331 77.3,362.7C77.3,362.7 77.3,362.7 77.3,362.8C77.3,362.8 77.3,362.8 77.3,362.8C77.3,362.8 77.2,362.9 77.2,362.9C70.8,371.6 65,380.7 59.7,390.2C56.6,395.8 53.6,401.5 50.9,407.4C50.9,407.4 50.9,407.4 50.9,407.5C42.2,425.8 35.6,445.4 31.4,465.9C26.9,488.1 28.8,505.7 36.9,518.5C45.9,532.8 62.2,541 82.9,541L557.1,541C577.8,541 594.1,532.8 603.1,518.5C611.2,505.7 613.1,488.1 608.6,465.9C604.4,445.4 597.8,425.8 589.1,407.5C589.1,407.4 589.1,407.4 589.1,407.4C586.4,401.5 583.5,395.8 580.3,390.2C575,380.7 569.2,371.6 562.8,362.9C562.8,362.9 562.8,362.8 562.7,362.8C562.7,362.7 562.7,362.7 562.7,362.7C538.6,330.9 506.2,305.5 468.4,289.2L468.4,242.9C468.4,239.3 465.5,236.4 461.9,236.4L462.1,236.4ZM81.1,433.6C85.3,423.9 90.3,414.6 96.1,405.7C101.2,397.7 106.8,390.1 112.9,382.9C142.3,348.3 183.5,323.5 229.8,312.5L229.9,312.5C244.4,309.1 259.5,307.3 275,307.3L365,307.3C380.5,307.3 395.6,309.2 410.1,312.5C456.4,323.5 497.6,348.2 527,382.9C533.1,390.1 538.8,397.7 543.8,405.7C549.6,414.5 554.6,423.8 558.8,433.6C565.6,449.4 570.3,466 572.8,483.1C573.7,489.2 574.2,495.4 574.5,501.5L65.5,501.5C65.8,495.3 66.3,489.2 67.2,483.1C69.7,466 74.4,449.4 81.1,433.6Z" style="fill:rgb(98,93,168);fill-rule:nonzero;"/>
                </g>
            </g>
            <g transform="matrix(-1,0,0,1,639.9,0)">
                <g id="eye">
                    <ellipse cx="231.4" cy="396.2" rx="28.6" ry="28.3" style="fill:rgb(98,93,168);"/>
                </g>
            </g>
            <g id="eye1" >
                <ellipse cx="231.4" cy="396.2" rx="28.6" ry="28.3" style="fill:rgb(98,93,168);"/>
            </g>
            <g transform="matrix(1,0,0,1,0,-14)">
                <g id="mouth">
                    <path d="M381.7,464.2L258.3,464.2C253.8,464.2 250.2,460.6 250.2,456.1C250.2,451.6 253.8,448 258.3,448L381.7,448C386.2,448 389.8,451.6 389.8,456.1C389.8,460.6 386.2,464.2 381.7,464.2Z" style="fill:rgb(98,93,168);fill-rule:nonzero;"/>
                </g>
            </g>
        </g>
    </g>
</svg>
