<?xml version="1.0" encoding="UTF-8" standalone="no"?>
<!DOCTYPE svg PUBLIC "-//W3C//DTD SVG 1.1//EN" "http://www.w3.org/Graphics/SVG/1.1/DTD/svg11.dtd">
<svg width="456" height="456" viewBox="0 0 456 456" version="1.1" xmlns="http://www.w3.org/2000/svg" xmlns:xlink="http://www.w3.org/1999/xlink" xml:space="preserve" xmlns:serif="http://www.serif.com/" style="fill-rule:evenodd;clip-rule:evenodd;stroke-linejoin:round;stroke-miterlimit:2;">
    <path d="M228,32.01C129.18,32.01 44.02,109.22 32.7,206.91C-0.28,206.91 -0.28,249.09 32.7,249.09C44.02,346.78 129.18,423.99 228,423.99C326.82,423.99 411.98,346.78 423.3,249.09C456.28,249.09 456.28,206.91 423.3,206.91C411.98,109.22 326.82,32.01 228,32.01ZM228,74.19C299.01,74.19 360.02,126.32 373.42,193.82L395.77,207.35L373.42,220.88L373.42,206.91C373.42,206.41 373.41,205.92 373.4,205.42C373.41,205.73 373.42,206.04 373.42,206.35L373.42,220.88L395.77,207.35C399.45,207.81 402.71,210.13 404.18,213.79C406.05,218.46 403.83,223.77 399.16,225.64L373.93,235.37L374.24,249.64C374.24,249.46 374.25,249.28 374.25,249.09L374.25,249.09L374.24,249.64L373.93,235.37L399.16,225.64C403.83,223.77 406.05,218.46 404.18,213.79C402.71,210.13 399.45,207.81 395.77,207.35L373.42,206.91L373.42,206.35L373.42,193.82C360.02,126.32 299.01,74.19 228,74.19ZM152.75,175.25C165.06,175.25 175.94,184.41 178.17,196.43L181.25,213.03L195.41,204.7C198.7,202.77 202.44,201.75 206.25,201.75L249.75,201.75C253.56,201.75 257.3,202.77 260.59,204.7L274.75,213.03L277.83,196.43C280.06,184.41 290.94,175.25 303.25,175.25L303.25,175.25C317.78,175.25 329.54,187.16 329.5,201.69C329.5,220.43 313.38,235.68 294.64,234.68L279.45,233.77L282.67,245.27C283.65,248.76 284.16,252.36 284.21,255.98L284.24,299.76C284.24,313.18 274.97,325.07 261.99,328.46L256.4,329.93L257.93,335.52C260.11,343.43 253.59,351.07 245.63,350.27C240.49,349.75 236.25,345.81 235.3,340.74L228,300.01L220.7,340.74C219.75,345.81 215.51,349.75 210.37,350.27C202.41,351.07 195.89,343.43 198.07,335.52L199.6,329.93L194.01,328.46C181.03,325.07 171.76,313.18 171.76,299.76L171.79,255.98C171.84,252.36 172.35,248.76 173.33,245.27L176.55,233.77L161.36,234.68C142.62,235.68 126.5,220.43 126.5,201.69C126.46,187.16 138.22,175.25 152.75,175.25L152.75,175.25Z" style="fill:white;fill-rule:nonzero;"/>
</svg>
